# xmcd CD database file
#
# Track frame offsets:
#	150
#	15360
#	26532
#	35076
#	45602
#	59677
#	70320
#	81938
#	92424
#	107438
#	120119
#	126280
#	137117
#	144266
#	148967
#	170698
#	176791
#	186807
#	194453
#	200953
#	207129
#	216504
#	225262
#	241100
#	247748
#
# Disc length: 3439 seconds
#
# Revision: 0
# Processed by: cddbd v1.5.2PL0 Copyright (c) Steve Scherf et al.
# Submitted via: CDex 1.75
#
DISCID=680d6d19
DTITLE=Lawson Rollins - Dark Matter: Music For Film
DYEAR=2019
DGENRE=New Age
TTITLE0=Innocence
TTITLE1=Endless
TTITLE2=Waiting
TTITLE3=Sinister Encounter
TTITLE4=Ever Onward
TTITLE5=Discovering
TTITLE6=Loss
TTITLE7=Never Forget
TTITLE8=Memories
TTITLE9=Mystic
TTITLE10=Forbidden
TTITLE11=Striving
TTITLE12=Visions
TTITLE13=Apparition
TTITLE14=Out of the Past
TTITLE15=Haunting
TTITLE16=Secrets of the Wind
TTITLE17=Spirits
TTITLE18=Through the Forest
TTITLE19=Searching
TTITLE20=Passageway
TTITLE21=Unsettled
TTITLE22=Corruption
TTITLE23=Conflict
TTITLE24=Undercurrent
EXTD=YEAR: 2019
EXTT0=
EXTT1=
EXTT2=
EXTT3=
EXTT4=
EXTT5=
EXTT6=
EXTT7=
EXTT8=
EXTT9=
EXTT10=
EXTT11=
EXTT12=
EXTT13=
EXTT14=
EXTT15=
EXTT16=
EXTT17=
EXTT18=
EXTT19=
EXTT20=
EXTT21=
EXTT22=
EXTT23=
EXTT24=
PLAYORDER=
